<mxfile host="app.diagrams.net" modified="2024-03-27T00:06:04.569Z" agent="Mozilla/5.0 (Macintosh; Intel Mac OS X 10_15_7) AppleWebKit/537.36 (KHTML, like Gecko) Chrome/123.0.0.0 Safari/537.36" version="24.1.0" etag="aiOPUQrMHyIwHxgRlM3G" type="github">
  <diagram name="Page-1" id="f01cJWDkCD-xYu5ZR60B">
    <mxGraphModel>
      <root>
        <mxCell id="0" />
        <mxCell id="1" parent="0" />
      </root>
    </mxGraphModel>
  </diagram>
</mxfile>
